<svg id="Capa_1" enable-background="new 0 0 493.231 493.231" viewBox="0 0 493.231 493.231" xmlns="http://www.w3.org/2000/svg"><g><g><g id="XMLID_400_"><g><path d="m328.727 82.66c90.297 0 163.5 73.435 163.463 164.023-.036 90.78-74.521 163.889-165.028 163.889h-212.916c-62.469 0-114.037-50.316-114.246-112.973-.209-62.794 50.474-113.759 113.02-113.759 17.098 0 33.314 3.811 47.842 10.631 5.841 2.742 12.725-.026 15.015-6.074 23.409-61.813 83.008-105.737 152.85-105.737z" fill="#f9f3f1"/></g></g></g><path d="m51.526 332.502c-.209-62.794 50.473-113.758 113.019-113.758 17.098 0 33.314 3.811 47.842 10.631 5.841 2.742 12.725-.026 15.015-6.074 23.409-61.814 83.008-105.738 152.85-105.738 22.706 0 44.329 4.647 63.98 13.039-29.575-29.623-70.408-47.942-115.506-47.942-69.842 0-129.441 43.924-152.85 105.738-2.29 6.047-9.174 8.816-15.015 6.074-14.528-6.82-30.744-10.631-47.842-10.631-62.546 0-113.229 50.965-113.019 113.758.167 50.031 33.08 92.19 78.141 107.151-16.504-19.548-26.523-44.704-26.615-72.248z" fill="#f3eae6"/><g fill="#dcf5f8"><path d="m458.824 371.399h-79.689c-10.789 0-19.536-8.747-19.536-19.536 0-10.789 8.747-19.536 19.536-19.536h89.023c10.582 0 19.594-8.229 19.97-18.804.395-11.102-8.488-20.226-19.502-20.226h-117.882c-10.778 0-19.515-8.737-19.515-19.515 0-10.778 8.737-19.515 19.515-19.515h78.509c10.582 0 19.594-8.229 19.97-18.804.395-11.102-8.488-20.226-19.502-20.226h-202.456c-10.582 0-19.594 8.228-19.97 18.803-.395 11.102 8.488 20.227 19.502 20.227h16.997c10.778 0 19.515 8.737 19.515 19.515 0 10.778-8.737 19.515-19.515 19.515h-84.456c-10.582 0-19.594 8.229-19.97 18.804-.395 11.102 8.488 20.226 19.502 20.226h133.674c10.789 0 19.536 8.747 19.536 19.536 0 10.789-8.747 19.536-19.536 19.536h-27.634c-10.778 0-19.515 8.737-19.515 19.515 0 10.778 8.737 19.515 19.515 19.515h193.915c10.778 0 19.515-8.737 19.515-19.515-.001-10.778-8.738-19.515-19.516-19.515z"/><path d="m371.931 174.207h101.785c10.778 0 19.515-8.737 19.515-19.515 0-10.778-8.737-19.515-19.515-19.515h-101.785c-10.778 0-19.515 8.737-19.515 19.515 0 10.777 8.737 19.515 19.515 19.515z"/><path d="m279.831 174.207h13.674c10.778 0 19.515-8.737 19.515-19.515 0-10.778-8.737-19.515-19.515-19.515h-13.674c-10.778 0-19.515 8.737-19.515 19.515 0 10.777 8.737 19.515 19.515 19.515z"/></g></g></svg>