<svg id="Capa_1" enable-background="new 0 0 512 512" viewBox="0 0 512 512" xmlns="http://www.w3.org/2000/svg"><g><path d="m451 143.853v-7.853c0-74.443-60.557-136-135-136-37.083 0-70.695 15.055-95.118 39.338-12.332-6.115-25.896-9.338-39.882-9.338-49.629 0-90 41.371-90 91 0 10.582 2.087 20.61 5.511 30l39.489 15-21.592 15h-114.408v75 75h114.408l21.592 15-39.489 15c-3.424 9.39-5.511 19.418-5.511 30 0 49.629 40.371 91 90 91 13.986 0 27.55-3.223 39.882-9.338 24.423 24.283 58.035 39.338 95.118 39.338 74.443 0 135-61.557 135-136v-7.853c36.141-24.249 61-65.446 61-112.147s-24.859-87.898-61-112.147z" fill="#ecf2ff"/><path d="m114.408 331 21.592 15-39.489 15c-3.424 9.39-5.511 19.418-5.511 30 0 49.629 40.371 91 90 91 13.986 0 27.55-3.223 39.882-9.338 24.423 24.283 58.035 39.338 95.118 39.338 74.443 0 135-61.557 135-136v-7.853c36.141-24.249 61-65.446 61-112.147h-512v75z" fill="#d9e5ff"/><path d="m226 181c24.814 0 45-20.186 45-45h-30c0 8.276-6.724 15-15 15h-129.489c4.063 11.138 10.087 21.341 17.897 30z" fill="#d9e5ff"/><path d="m241 376h30c0-24.814-20.186-45-45-45h-111.592c-7.809 8.659-13.834 18.862-17.897 30h129.489c8.276 0 15 6.724 15 15z" fill="#bfd6ff"/></g></svg>